<svg width="17" height="16" viewBox="0 0 17 16" fill="none" xmlns="http://www.w3.org/2000/svg">
    <circle cx="8.5" cy="8" r="8"/>
    <path d="M5.99005 4.86303C5.9079 4.78368 5.79787 4.73978 5.68366 4.74077C5.56945 4.74176 5.4602 4.78758 5.37944 4.86834C5.29868 4.94911 5.25287 5.05836 5.25188 5.17258C5.25089 5.2868 5.29479 5.39683 5.37414 5.47899L7.88964 7.99466L5.3737 10.5103C5.3321 10.5505 5.29891 10.5986 5.27609 10.6517C5.25326 10.7049 5.24124 10.762 5.24074 10.8199C5.24024 10.8777 5.25126 10.9351 5.27316 10.9886C5.29506 11.0421 5.3274 11.0908 5.3683 11.1317C5.4092 11.1726 5.45783 11.2049 5.51137 11.2268C5.5649 11.2487 5.62226 11.2598 5.68009 11.2593C5.73793 11.2588 5.79509 11.2467 5.84823 11.2239C5.90137 11.2011 5.94944 11.1679 5.98962 11.1263L8.50555 8.61062L11.0211 11.1263C11.1032 11.2056 11.2132 11.2495 11.3274 11.2485C11.4417 11.2476 11.5509 11.2017 11.6317 11.121C11.7124 11.0402 11.7582 10.931 11.7592 10.8167C11.7602 10.7025 11.7163 10.5925 11.637 10.5103L9.12147 7.99466L11.637 5.47899C11.7163 5.39683 11.7602 5.2868 11.7592 5.17258C11.7582 5.05836 11.7124 4.94911 11.6317 4.86834C11.5509 4.78758 11.4417 4.74176 11.3274 4.74077C11.2132 4.73978 11.1032 4.78368 11.0211 4.86303L8.50555 7.3787L5.99005 4.8626V4.86303Z"
          fill="#151617"/>
</svg>
